<?xml version="1.0" encoding="utf-8"?>
<!-- Generator: Adobe Illustrator 17.0.0, SVG Export Plug-In . SVG Version: 6.00 Build 0)  -->
<!DOCTYPE svg PUBLIC "-//W3C//DTD SVG 1.1//EN" "http://www.w3.org/Graphics/SVG/1.1/DTD/svg11.dtd">
<svg version="1.1" id="Layer_1" xmlns="http://www.w3.org/2000/svg" xmlns:xlink="http://www.w3.org/1999/xlink" x="0px" y="0px"
	 width="100px" height="98.954px" viewBox="0 0 100 98.954" enable-background="new 0 0 100 98.954" xml:space="preserve">
<g>
	<path fill="#97D2D6" d="M67.76,92.978c0.136,0.088,0.208,0.193,0.305,0.44c0.089,0.231,0.348,0.98,0.372,1.046
		c0.106,0.27,0.303,0.22,0.352,0.204c0.022-0.011,0.14-0.104,0.185-0.176c0.016-0.018,0.025-0.01,0.046,0.003
		c0.022,0.012,0.035,0.045,0.037,0.053c0.043,0.113-0.121,0.467-0.386,0.57c-0.132,0.048-0.332,0.04-0.487-0.15
		c0,0-0.034-0.022-0.044-0.01c-0.158,0.236-0.371,0.435-0.423,0.476c-0.055,0.047-0.192,0.113-0.222,0.125
		c-0.204,0.081-0.5-0.096-0.613-0.391c-0.04-0.104-0.035-0.235-0.005-0.342c0.029-0.1,0.106-0.162,0.179-0.237
		c0.076-0.07,0.493-0.382,0.607-0.472c0.12-0.095,0.142-0.136,0.129-0.173c-0.016-0.056-0.147-0.416-0.175-0.485
		c-0.057-0.145-0.32-0.329-0.609-0.216c-0.12,0.047-0.184,0.112-0.213,0.156c-0.027,0.031-0.005,0.144,0.051,0.258
		c0.007,0.019-0.003,0.063-0.01,0.081c-0.038,0.068-0.278,0.328-0.306,0.34c-0.036,0.013-0.089-0.02-0.1-0.049
		c-0.065-0.172,0.035-0.4,0.24-0.687c0.121-0.19,0.347-0.391,0.46-0.435C67.421,92.791,67.622,92.882,67.76,92.978z M68.047,94.879
		c0.026-0.038,0.018-0.163,0.014-0.174c-0.044-0.145-0.119-0.347-0.166-0.463c-0.006-0.019-0.04-0.038-0.063-0.031
		c-0.166,0.064-0.407,0.273-0.536,0.41c-0.044,0.064-0.086,0.129-0.032,0.269c0.1,0.261,0.38,0.259,0.504,0.21
		C67.856,95.068,67.958,94.983,68.047,94.879z"/>
	<path fill="#97D2D6" d="M70.483,91.532c0.006-0.004,0.076-0.001,0.083,0.015c-0.007-0.016,0.082,0.136,0.116,0.211
		c0.027,0.052-0.079,0.114-0.119,0.132c-0.024,0.009-0.559,0.255-0.622,0.283c-0.029,0.013-0.041,0.052-0.034,0.064
		c0.047,0.116,0.423,0.963,0.547,1.239c0.065,0.141,0.132,0.201,0.226,0.236c0.151,0.049,0.277,0.005,0.397-0.05
		c0.073-0.035,0.179-0.124,0.241-0.215c0.038-0.054,0.046-0.063,0.07-0.073c0.006-0.004,0.04-0.005,0.062,0.047
		c0.022,0.045,0.008,0.121-0.015,0.18c-0.085,0.219-0.239,0.414-0.496,0.532c-0.235,0.106-0.499,0.054-0.626-0.039
		c-0.104-0.069-0.172-0.183-0.245-0.346c-0.095-0.21-0.462-1.083-0.555-1.284c-0.018-0.039-0.139-0.033-0.268-0.015
		c-0.054,0.003-0.1-0.008-0.11-0.026c-0.009-0.024-0.001-0.053,0.006-0.078c0.129-0.254,0.243-0.472,0.277-0.606
		c0.033-0.113,0.053-0.174,0.076-0.186c0.028-0.013,0.102,0.016,0.108,0.028c0.01,0.021,0.048,0.104,0.121,0.268
		c0.008,0.019,0.046,0.035,0.067,0.025C69.917,91.819,70.46,91.541,70.483,91.532z"/>
	<path fill="#97D2D6" d="M73.188,90.338c0.184,0.054,0.338,0.172,0.443,0.366c0.016,0.035,0.003,0.118-0.055,0.153
		c-0.063,0.033-1.011,0.537-1.267,0.668c-0.018,0.01-0.027,0.048-0.022,0.066c0.007,0.057,0.046,0.157,0.074,0.212
		c0.117,0.216,0.339,0.427,0.545,0.523c0.212,0.102,0.518,0.117,0.785-0.025c0.242-0.13,0.376-0.282,0.398-0.469
		c0.006-0.045,0.014-0.094,0.035-0.107c0.037-0.016,0.066,0.016,0.082,0.045c0.023,0.045,0.035,0.117,0.031,0.153
		c-0.042,0.389-0.266,0.678-0.582,0.848c-0.6,0.319-1.241,0.075-1.584-0.577c-0.235-0.446-0.237-1.016,0.088-1.447
		c0.112-0.144,0.277-0.276,0.37-0.326C72.722,90.315,72.977,90.274,73.188,90.338z M72.207,91.306
		c0.002,0.032,0.043,0.053,0.055,0.048c0.146-0.071,0.438-0.228,0.715-0.381c0.133-0.072,0.171-0.129,0.114-0.24
		c-0.081-0.156-0.344-0.244-0.543-0.137C72.297,90.728,72.169,90.997,72.207,91.306z"/>
	<path fill="#97D2D6" d="M73.449,87.944c0.198-0.236,0.339-0.364,0.429-0.546c0.01-0.021,0.068,0.003,0.081,0.024
		c0.066,0.147,0.4,0.776,0.834,1.498c0.474,0.789,1.082,1.827,1.196,1.954c0.087,0.093,0.148,0.145,0.416,0.071
		c0.092-0.028,0.153-0.028,0.174,0.006c0.022,0.037-0.04,0.105-0.107,0.144c-0.128,0.078-0.369,0.202-0.466,0.26
		c-0.123,0.075-0.35,0.235-0.464,0.303c-0.106,0.065-0.16,0.075-0.185,0.032c-0.024-0.039,0.022-0.101,0.074-0.149
		c0.215-0.202,0.166-0.307,0.022-0.587c-0.114-0.212-0.437-0.809-0.95-1.662c-0.241-0.398-0.597-0.955-0.693-1.116
		c-0.027-0.043-0.051-0.073-0.221-0.072c-0.129-0.012-0.155-0.016-0.167-0.039C73.408,88.043,73.402,87.995,73.449,87.944z"/>
	<path fill="#97D2D6" d="M76.365,86.949c0.095,0.138,0.026,0.355-0.078,0.422c-0.038,0.026-0.136,0.06-0.212,0.05
		c-0.072-0.02-0.147-0.051-0.206-0.141c-0.031-0.047-0.068-0.147-0.063-0.231c0.024-0.081,0.085-0.155,0.158-0.207
		C76.106,86.75,76.301,86.852,76.365,86.949z M76.408,88.314c0.164-0.172,0.334-0.452,0.398-0.526
		c0.019-0.014,0.082,0.021,0.085,0.026c0.04,0.06,0.462,0.759,0.661,1.059c0.195,0.293,0.349,0.51,0.476,0.691
		c0.117,0.163,0.239,0.096,0.398,0.049c0.1-0.027,0.149-0.024,0.173,0.013c0.023,0.032-0.028,0.096-0.085,0.134
		c-0.038,0.025-0.307,0.186-0.417,0.258c-0.174,0.115-0.34,0.26-0.43,0.32c-0.084,0.056-0.148,0.07-0.175,0.033
		c-0.018-0.032,0-0.082,0.071-0.168c0.098-0.112,0.132-0.228,0.11-0.29c-0.033-0.081-0.238-0.4-0.341-0.551
		c-0.005-0.012-0.496-0.759-0.549-0.816c-0.029-0.033-0.114-0.035-0.34-0.045c-0.045,0.003-0.066-0.006-0.079-0.028
		C76.337,88.436,76.357,88.363,76.408,88.314z"/>
	<path fill="#97D2D6" d="M79.658,86.048c0.192,0.021,0.361,0.113,0.493,0.291c0.022,0.031,0.024,0.116-0.031,0.157
		c-0.056,0.041-0.912,0.691-1.147,0.86c-0.014,0.012-0.014,0.052-0.009,0.072c0.014,0.052,0.07,0.143,0.107,0.194
		c0.147,0.197,0.402,0.368,0.62,0.429c0.224,0.07,0.53,0.037,0.77-0.148c0.221-0.167,0.329-0.336,0.321-0.525
		c-0.003-0.047,0-0.096,0.02-0.109c0.028-0.023,0.066,0.003,0.085,0.03c0.032,0.04,0.052,0.11,0.056,0.147
		c0.016,0.39-0.158,0.713-0.445,0.928c-0.54,0.412-1.212,0.271-1.654-0.319c-0.303-0.401-0.392-0.966-0.138-1.442
		c0.083-0.16,0.228-0.314,0.312-0.38C79.194,86.1,79.44,86.017,79.658,86.048z M78.839,87.158c0.01,0.032,0.054,0.048,0.063,0.041
		c0.133-0.094,0.398-0.297,0.647-0.491c0.119-0.091,0.151-0.155,0.076-0.256c-0.106-0.141-0.376-0.187-0.557-0.05
		C78.84,86.573,78.757,86.858,78.839,87.158z"/>
	<path fill="#97D2D6" d="M80.763,85.114c0.114-0.187,0.203-0.387,0.224-0.457c0.027-0.087,0.033-0.128,0.048-0.14
		c0.018-0.015,0.08,0.006,0.092,0.022c0.072,0.086,0.136,0.182,0.213,0.272c0.018,0.018,0.048,0.003,0.051-0.01
		c0.035-0.337,0.145-0.638,0.293-0.763c0.196-0.169,0.341-0.085,0.379-0.042c0.009,0.009,0.022,0.057,0.029,0.091
		c0.012,0.123,0.005,0.35-0.014,0.39c-0.004,0.012-0.055,0.04-0.077,0.04c-0.093-0.001-0.256,0.038-0.352,0.123
		c-0.082,0.068-0.152,0.151-0.154,0.246c0,0.069,0.021,0.121,0.043,0.147c0.08,0.094,0.841,0.946,0.907,1.012
		c0.13,0.132,0.235,0.198,0.333,0.14c0.074-0.039,0.18-0.09,0.268-0.13c0.098-0.044,0.134-0.018,0.151,0.002
		c0.02,0.023-0.006,0.081-0.078,0.142c-0.119,0.102-0.307,0.222-0.583,0.456c-0.144,0.124-0.183,0.194-0.3,0.29
		c-0.053,0.047-0.117,0.07-0.151,0.032c-0.024-0.028,0.018-0.099,0.044-0.144c0.133-0.225,0.108-0.284-0.132-0.575
		c-0.102-0.122-0.509-0.603-0.78-0.919c-0.038-0.048-0.092-0.112-0.172-0.1c-0.192,0.008-0.256,0.03-0.274,0.009
		C80.76,85.235,80.729,85.179,80.763,85.114z"/>
	<path fill="#97D2D6" d="M85.338,80.493c0.021-0.013,0.003-0.058-0.018-0.087c-0.101-0.14-0.81-0.788-0.934-0.877
		c-0.026-0.016-0.083-0.071-0.389,0.034c-0.063,0.023-0.076,0.018-0.085,0.009c-0.016-0.019-0.026-0.118-0.005-0.151
		c0.088-0.117,0.248-0.425,0.314-0.588c0.016-0.037,0.025-0.054,0.042-0.073c0.013-0.012,0.07-0.01,0.108,0.033
		c0.218,0.253,0.365,0.429,1.762,1.755c0.922,0.875,0.963,0.896,1.052,0.975c0.173,0.155,0.226,0.138,0.252,0.109
		c0.048-0.05,0.158-0.231,0.197-0.282c0.018-0.018,0.049-0.007,0.053,0c0.032,0.031,0.057,0.159,0.041,0.185
		c-0.067,0.1-0.246,0.382-0.297,0.498c-0.063,0.142-0.088,0.187-0.109,0.209c-0.018,0.018-0.085,0.013-0.108-0.007
		c-0.042-0.036-0.115-0.125-0.179-0.185c-0.019-0.016-0.044-0.008-0.054,0c-0.012,0.39-0.189,0.664-0.331,0.814
		c-0.207,0.221-0.507,0.334-0.792,0.333c-0.301-0.009-0.604-0.155-0.832-0.373c-0.447-0.424-0.461-0.931-0.381-1.284
		c0.072-0.331,0.28-0.645,0.397-0.771C85.198,80.602,85.277,80.539,85.338,80.493z M84.855,81.59
		c0.006,0.169,0.139,0.495,0.395,0.738c0.364,0.348,1.025,0.491,1.396,0.096c0.139-0.147,0.188-0.298,0.206-0.44
		c0-0.017-0.092-0.214-0.232-0.36c-0.288-0.28-0.541-0.514-0.771-0.704c-0.042-0.03-0.161-0.067-0.268-0.064
		c-0.248,0.007-0.462,0.133-0.547,0.224C84.895,81.228,84.851,81.429,84.855,81.59z"/>
	<path fill="#97D2D6" d="M87.962,77.761c0.19-0.024,0.376,0.024,0.546,0.164c0.029,0.025,0.051,0.107,0.009,0.162
		c-0.047,0.053-0.726,0.887-0.913,1.107c-0.014,0.014-0.006,0.054,0.006,0.071c0.027,0.046,0.1,0.125,0.149,0.163
		c0.19,0.157,0.475,0.263,0.703,0.272c0.234,0.012,0.522-0.09,0.713-0.326c0.179-0.213,0.244-0.404,0.19-0.585
		c-0.012-0.044-0.022-0.094-0.006-0.115c0.026-0.028,0.066-0.007,0.092,0.009c0.035,0.033,0.075,0.097,0.087,0.132
		c0.107,0.373,0.012,0.727-0.214,1.006c-0.431,0.526-1.115,0.547-1.683,0.079c-0.389-0.319-0.609-0.845-0.474-1.368
		c0.048-0.176,0.149-0.359,0.215-0.443C87.522,77.919,87.741,77.782,87.962,77.761z M87.425,79.032
		c0.017,0.03,0.06,0.034,0.07,0.022c0.108-0.121,0.319-0.381,0.513-0.626c0.097-0.117,0.112-0.187,0.017-0.266
		c-0.138-0.113-0.412-0.094-0.556,0.081C87.29,78.464,87.275,78.758,87.425,79.032z"/>
	<path fill="#97D2D6" d="M92.22,73.489c0.435,0.285,0.606,0.775,0.606,1.054c0.014,0.312-0.063,0.553-0.217,0.792
		c-0.158,0.243-0.441,0.432-0.73,0.522c-0.331,0.106-0.795,0.034-1.058-0.137c-0.4-0.263-0.541-0.598-0.58-0.909
		c-0.033-0.256-0.009-0.616,0.218-0.969C90.802,73.318,91.556,73.054,92.22,73.489z M90.483,74.488c0.037,0.22,0.23,0.521,0.504,0.7
		c0.173,0.113,0.35,0.198,0.512,0.244c0.475,0.125,0.86-0.052,1.029-0.304c0.036-0.057,0.085-0.191,0.035-0.436
		c-0.057-0.223-0.314-0.544-0.54-0.693c-0.272-0.178-0.613-0.311-0.976-0.265c-0.201,0.035-0.404,0.172-0.492,0.309
		C90.483,74.155,90.46,74.315,90.483,74.488z"/>
	<path fill="#97D2D6" d="M94.78,71.081c0.065,0.328-0.056,0.695-0.162,0.889c-0.104,0.195-0.379,0.539-0.495,0.643
		c-0.023,0.016-0.044,0.069-0.046,0.125c0,0.029-0.013,0.067-0.018,0.075c-0.014,0.022-0.053,0.016-0.092-0.006
		c-0.413-0.262-1.358-0.789-1.811-1.038c-0.523-0.287-1.347-0.722-1.431-0.753c-0.028-0.01-0.116-0.02-0.261,0.037
		c-0.108,0.049-0.139,0.066-0.166,0.052c-0.006-0.003-0.045-0.09-0.042-0.109c0.03-0.184,0.083-0.401,0.078-0.546
		c-0.006-0.098,0.004-0.166,0.01-0.176c0.01-0.023,0.081-0.034,0.104-0.023c0.354,0.218,0.861,0.538,1.301,0.782
		c0.143,0.078,0.414,0.227,0.48,0.248c0.01,0.008,0.042-0.013,0.042-0.013c-0.024-0.257,0.055-0.558,0.153-0.741
		c0.144-0.259,0.369-0.461,0.618-0.554c0.343-0.134,0.718-0.079,1.031,0.095C94.529,70.32,94.727,70.735,94.78,71.081z
		 M93.078,70.47c-0.194,0.057-0.423,0.212-0.564,0.472c-0.1,0.183-0.107,0.317-0.1,0.381c0.003,0.022,0.024,0.062,0.059,0.087
		c0.047,0.033,0.199,0.122,0.314,0.187c0.286,0.159,0.594,0.303,0.906,0.442c0.117,0.058,0.222,0.073,0.334,0.041
		c0.244-0.067,0.461-0.288,0.513-0.388c0.033-0.063,0.044-0.248-0.003-0.44c-0.065-0.237-0.352-0.526-0.601-0.662
		C93.739,70.478,93.385,70.393,93.078,70.47z"/>
	<path fill="#97D2D6" d="M92.94,67.242c0.205,0.099,0.202,0.312,0.152,0.416c-0.045,0.094-0.244,0.21-0.405,0.142
		c-0.087-0.04-0.157-0.13-0.183-0.22c-0.019-0.05-0.023-0.1,0.01-0.168C92.624,67.177,92.864,67.208,92.94,67.242z M93.726,68.466
		c0.025-0.156,0.07-0.506,0.065-0.626c-0.005-0.048,0.005-0.081,0.016-0.109c0.002-0.007,0.063-0.022,0.081-0.012
		c0.317,0.165,1.902,0.927,2.042,1c0.459,0.234,0.763,0.493,0.933,0.75c0.168,0.246,0.282,0.521,0.333,0.811
		c0.026,0.124,0.026,0.212,0.012,0.243c-0.014,0.029-0.052,0.095-0.087,0.111c-0.023,0.003-0.054-0.016-0.061-0.034
		c-0.034-0.283-0.076-0.417-0.111-0.501c-0.121-0.243-0.432-0.579-1.276-0.98c-0.271-0.128-1.34-0.633-1.517-0.687
		c-0.039-0.014-0.104-0.009-0.306,0.138c-0.025,0.02-0.061,0.042-0.085,0.03C93.743,68.591,93.719,68.525,93.726,68.466z"/>
	<path fill="#97D2D6" d="M95.322,64.817c0.175-0.079,0.37-0.089,0.574-0.008c0.034,0.016,0.08,0.087,0.053,0.153
		c-0.026,0.063-0.429,1.065-0.543,1.333c-0.006,0.015,0.015,0.053,0.028,0.062c0.041,0.038,0.136,0.09,0.193,0.113
		c0.227,0.094,0.534,0.107,0.752,0.045c0.228-0.056,0.473-0.241,0.586-0.523c0.104-0.258,0.108-0.461,0.005-0.617
		c-0.027-0.038-0.051-0.082-0.04-0.105c0.013-0.037,0.06-0.031,0.087-0.018c0.05,0.018,0.104,0.066,0.125,0.097
		c0.214,0.324,0.231,0.693,0.096,1.025c-0.254,0.634-0.903,0.86-1.583,0.583c-0.466-0.189-0.833-0.625-0.861-1.166
		c-0.009-0.179,0.036-0.386,0.075-0.485C94.953,65.099,95.118,64.903,95.322,64.817z M95.193,66.191
		c0.022,0.024,0.069,0.012,0.073,0.003c0.066-0.15,0.192-0.461,0.303-0.755c0.057-0.14,0.05-0.21-0.065-0.259
		c-0.164-0.064-0.42,0.037-0.506,0.246C94.892,65.689,94.964,65.979,95.193,66.191z"/>
	<path fill="#97D2D6" d="M96.117,62.003c0.001-0.006,0.05-0.056,0.068-0.051c-0.018-0.005,0.157,0.033,0.234,0.06
		c0.054,0.02,0.025,0.136,0.013,0.177c-0.01,0.026-0.194,0.588-0.217,0.654c-0.011,0.028,0.01,0.062,0.023,0.066
		c0.117,0.045,0.991,0.347,1.275,0.441c0.147,0.052,0.238,0.043,0.325,0c0.14-0.081,0.194-0.201,0.234-0.328
		c0.026-0.077,0.033-0.214,0.01-0.322c-0.01-0.064-0.016-0.077-0.006-0.102c0.002-0.007,0.024-0.033,0.078-0.014
		c0.048,0.014,0.093,0.078,0.121,0.132c0.099,0.215,0.139,0.461,0.047,0.728c-0.081,0.246-0.299,0.404-0.455,0.432
		c-0.123,0.032-0.252,0.003-0.418-0.054c-0.219-0.073-1.105-0.397-1.313-0.467c-0.042-0.014-0.12,0.079-0.196,0.187
		c-0.033,0.043-0.075,0.066-0.092,0.06c-0.025-0.007-0.041-0.034-0.054-0.055c-0.098-0.267-0.179-0.501-0.252-0.617
		c-0.059-0.101-0.091-0.158-0.085-0.182c0.01-0.031,0.083-0.064,0.093-0.063c0.025,0.008,0.11,0.037,0.28,0.094
		c0.018,0.006,0.055-0.007,0.065-0.029C95.938,62.616,96.107,62.028,96.117,62.003z"/>
	<path fill="#97D2D6" d="M98.289,58.716c0.504,0.131,0.82,0.543,0.907,0.807c0.112,0.29,0.117,0.545,0.046,0.818
		c-0.074,0.282-0.284,0.553-0.531,0.729c-0.281,0.205-0.742,0.288-1.046,0.207c-0.462-0.123-0.701-0.396-0.836-0.679
		c-0.116-0.231-0.205-0.583-0.096-0.991C96.889,59.004,97.525,58.515,98.289,58.716z M96.954,60.216
		c0.105,0.197,0.385,0.421,0.699,0.503c0.2,0.056,0.395,0.081,0.563,0.072c0.492-0.033,0.802-0.323,0.881-0.616
		c0.016-0.067,0.02-0.209-0.105-0.426c-0.124-0.196-0.468-0.416-0.728-0.484c-0.318-0.083-0.683-0.102-1.011,0.058
		c-0.181,0.096-0.332,0.292-0.371,0.45C96.85,59.9,96.879,60.058,96.954,60.216z"/>
	<path fill="#97D2D6" d="M97.563,56.055c0.025-0.064,0.1-0.175,0.106-0.185c0.009-0.012,0.059-0.04,0.097-0.033
		c0.11,0.021,0.324,0.043,0.366,0.052c0.055,0.01,0.107,0.045,0.097,0.097c-0.006,0.024-0.048,0.053-0.123,0.072
		c-0.316,0.079-0.468,0.21-0.507,0.415c-0.049,0.253,0.179,0.418,0.31,0.444c0.211,0.041,0.408-0.128,0.716-0.495
		c0.272-0.309,0.507-0.403,0.783-0.349c0.284,0.055,0.454,0.3,0.538,0.476c0.048,0.125,0.077,0.354,0.038,0.547
		c-0.034,0.185-0.143,0.485-0.25,0.573c-0.034,0.013-0.307,0.038-0.488,0.001c-0.067-0.014-0.126-0.037-0.117-0.073
		c0.009-0.05,0.091-0.079,0.166-0.104c0.346-0.109,0.503-0.254,0.545-0.477c0.014-0.081-0.009-0.187-0.044-0.265
		c-0.055-0.106-0.196-0.185-0.312-0.208c-0.166-0.032-0.313,0.03-0.467,0.198c-0.132,0.128-0.168,0.159-0.331,0.326
		c-0.152,0.163-0.406,0.319-0.696,0.262c-0.209-0.04-0.391-0.185-0.488-0.447c-0.052-0.133-0.076-0.311-0.036-0.521
		C97.49,56.247,97.532,56.119,97.563,56.055z"/>
</g>
<g>
	<path fill-rule="evenodd" clip-rule="evenodd" fill="#30B7C0" d="M94.718,35.641C91.548,24.413,85.621,16.405,77.04,9.479
		c-6.56-2.527-13-6.184-20.726-6.907c-3.88-0.37-8.332-0.279-11.415,0.161c-0.691,0.09-1.268,0.772-1.934,0.902
		c-1.012,0.194-2.003-0.182-2.782-0.009c-3.203,0.706-6.812,2.265-9.798,3.762c-10.706,5.36-21.35,16.528-24.942,30.914
		C2.499,50.116,4.834,62.037,9.845,70.632c4.94,8.488,15.064,18.175,26.924,21.281c8.755,2.298,16.467,1.995,23.372,0.803
		c1.226-0.175,1.97-1.065,3.25-1.17c9.742-1.717,21.408-11.568,26.955-22.67c2.175-4.351,4.34-9.775,4.97-14.568
		c0.151-1.15-0.331-3.207,0.102-4.554c-0.006-0.003-0.012-0.006-0.017-0.008c-0.016-0.082,0.027-0.145,0.093-0.202
		c0.077-0.176,0.168-0.34,0.288-0.482c0.536,0.207-0.044,0.281-0.288,0.482c-0.027,0.069-0.05,0.141-0.075,0.21
		c0.954,0.339,0.072,1.938,0.505,2.631C97.263,45.189,96.224,40.981,94.718,35.641z"/>
	<path fill-rule="evenodd" clip-rule="evenodd" fill="#30B7C0" d="M39.062,95.011c-3.651-2.599-7.993-3.655-11.924-5.833
		C13.388,81.575,6.079,68.763,3.337,56.813C1.85,50.337,1.75,41.724,4.14,34.394c0.517-1.464,1.125-2.876,1.856-4.198
		c4.599-8.307,8.753-12.582,14.287-16.993c3.357-2.678,6.287-5.381,9.875-7.126c1.618-0.779,3.818-1.063,5.676-1.693
		C41.79,2.37,47.755,1.414,53.923,1.83c-0.53-0.378-1.166-0.629-1.845-0.795c0.697,0.012,1.394,0.038,2.095,0.085
		c-1.422-1.016-3.61-1.118-5.331-1.12C35.322-0.047,21.198,5.72,10.869,19.755C7.243,24.68,4.603,29.691,2.86,34.698
		c-2.971,8.136-3.554,16.269-2.089,24.025c1.963,10.374,8.876,24.565,20.297,32.158c8.656,5.758,18.024,8.026,25.315,8.073
		c-2.117-0.595-5.121-0.741-7.35-1.493c2.687,0.518,5.251,0.766,7.602,0.783c-0.391-0.11-0.814-0.204-1.256-0.29
		c6.55,0.671,12.895-0.167,18.108-2.823c-0.993,0.258-1.997,0.475-3.002,0.66c1.123-0.388,2.212-0.839,3.253-1.368
		C55.878,96.443,47.553,96.152,39.062,95.011z"/>
</g>
<g>
	<g>
		<path fill="#FFFFFF" d="M16.438,49.227V36.043c0-2.05,0.506-3.622,1.517-4.717c1.008-1.097,2.475-1.645,4.398-1.645
			c1.921,0,3.387,0.548,4.394,1.645c1.01,1.095,1.514,2.667,1.514,4.717v2.478h-3.747v-2.726c0-1.66-0.685-2.49-2.056-2.49
			c-1.374,0-2.061,0.831-2.061,2.496v13.69c0.012,1.651,0.7,2.478,2.068,2.478c1.378,0,2.062-0.828,2.049-2.483v-3.633h3.747v3.375
			c0,2.052-0.504,3.623-1.514,4.72c-1.007,1.095-2.473,1.643-4.394,1.643c-1.923,0-3.389-0.548-4.398-1.643
			C16.944,52.85,16.438,51.278,16.438,49.227z"/>
		<path fill="#FFFFFF" d="M29.635,55.307l4.013-25.343h5.903l4.015,25.343h-3.958l-0.665-4.418h-4.905l-0.66,4.418H29.635z
			 M34.581,47.266h3.821l-1.915-12.757L34.581,47.266z"/>
		<path fill="#FFFFFF" d="M45.325,55.307V29.964H51.3c2.037,0,3.524,0.478,4.459,1.433c0.941,0.953,1.408,2.422,1.408,4.403v1.997
			c0,2.605-0.865,4.322-2.594,5.147c1.753,0.742,2.629,2.539,2.629,5.393v3.901c0,0.058,0,0.112,0,0.159
			c0,1.293,0.139,2.264,0.423,2.91H53.61c-0.235-0.717-0.356-1.753-0.367-3.104v-3.969c0-1.154-0.203-1.98-0.609-2.481
			c-0.404-0.501-1.062-0.75-1.977-0.75h-1.371v10.303H45.325z M49.287,41.382h1.546c0.798,0,1.394-0.206,1.785-0.619
			c0.393-0.412,0.592-1.102,0.592-2.068v-2.492c0.012-1.744-0.658-2.615-2.006-2.615h-1.916V41.382z"/>
		<path fill="#FFFFFF" d="M59.47,49.227V36.043c0-2.026,0.518-3.594,1.552-4.699c1.032-1.107,2.52-1.663,4.464-1.663
			c1.946,0,3.433,0.556,4.469,1.663c1.033,1.105,1.55,2.673,1.55,4.699v13.184c0,2.027-0.517,3.594-1.55,4.703
			c-1.036,1.107-2.523,1.66-4.469,1.66c-1.944,0-3.432-0.553-4.464-1.66C59.988,52.821,59.47,51.253,59.47,49.227z M63.43,49.461
			c0.011,1.657,0.702,2.493,2.066,2.506c1.378,0,2.062-0.837,2.051-2.506V35.795c0-1.66-0.688-2.49-2.061-2.49
			c-1.371,0-2.056,0.831-2.056,2.49V49.461z"/>
		<path fill="#FFFFFF" d="M74.073,55.307V29.964h3.961v21.718h6.524v3.625H74.073z"/>
	</g>
	<g>
		<path fill="#FFFFFF" d="M78.309,63.092c-0.432,0.375-1.744,1.228-2.334,1.582c-0.25,0.151-1.946,1.251-2.95,1.236
			c-0.11-0.038-0.193-0.085-0.247-0.163c-0.071-0.073-0.113-0.145-0.133-0.241c-0.039-0.086-0.055-0.176-0.055-0.276
			c-0.009-0.179,0.007-0.385,0.05-0.597l0.447-1.2l-0.006,0.019c0.012,0.047,0.042,0.096,0.063,0.113l0.078,0.116l0.269,0.206
			c0.037,0.024,0.079,0.041,0.222,0.083l0.226,0.041l0.425-0.022c0.059-0.007,0.123-0.019,0.18-0.033
			c0.132-0.028,0.238-0.057,0.324-0.092c0.176-0.066,0.348-0.153,0.522-0.25c0.082-0.045,0.155-0.09,0.227-0.14l0.187-0.142
			c0.241-0.185,0.455-0.403,0.633-0.644l-0.097-0.075l0.213-0.085l0.129-0.165c0.032-0.06,0.06-0.109,0.092-0.16l0.091-0.156
			c0.082-0.124,0.149-0.238,0.199-0.348c0.051-0.105,0.099-0.218,0.139-0.326c0.039-0.068,0.065-0.138,0.074-0.206
			c0.008-0.052,0.022-0.109,0.034-0.17c0.019-0.063,0.032-0.125,0.041-0.189c0.008-0.062,0.013-0.132,0.016-0.203
			c0-0.1-0.008-0.174-0.057-0.319c-0.012-0.05-0.035-0.101-0.078-0.158l-0.075-0.113c-0.037-0.051-0.096-0.1-0.181-0.144
			c-0.07-0.05-0.151-0.09-0.217-0.111c-0.042-0.022-0.1-0.04-0.166-0.052l-0.308-0.06l-0.385,0.011
			c-0.195,0.023-0.342,0.053-0.433,0.086c-0.067,0.017-0.126,0.036-0.186,0.058c-0.059,0.02-0.114,0.047-0.159,0.069l-0.717,0.416
			c-0.143,0.102-0.269,0.208-0.355,0.303c-0.062,0.052-0.126,0.102-0.183,0.153c-0.055,0.052-0.107,0.105-0.159,0.158l-0.195,0.215
			c-0.305,0.286-0.616,0.565-0.949,0.829c-0.363,0.293-0.741,0.582-1.126,0.869l-1.788,1.29c-0.193,0.144-0.386,0.293-0.571,0.443
			c-0.389,0.288-0.771,0.581-1.134,0.876c-0.367,0.3-0.731,0.601-1.09,0.908c-0.361,0.306-0.707,0.617-1.034,0.932
			c-0.074,0.07-0.148,0.145-0.219,0.212l4.575-7.314l0.035-0.116l-0.025-0.056c-0.027-0.062-0.083-0.105-0.167-0.129l-0.138-0.028
			c-0.085,0-0.162,0.028-0.244,0.088l-0.603,0.567c-0.109,0.092-0.217,0.184-0.321,0.282c-0.095,0.091-0.205,0.182-0.335,0.275
			c-0.217,0.189-0.434,0.373-0.65,0.554l-0.658,0.546c-0.217,0.188-0.438,0.371-0.658,0.548l-1.41,1.063
			c-0.232,0.168-0.477,0.333-0.738,0.501l-1.139,0.629l0.01-0.247l-0.01-0.022c0.016-0.063,0.033-0.122,0.039-0.175
			c0.006-0.039,0.021-0.081,0.057-0.145l0.048-0.161c0.012-0.043,0.033-0.086,0.06-0.131l0.085-0.169
			c0.025-0.046,0.05-0.092,0.083-0.147c0.11-0.214,0.225-0.419,0.35-0.62l0.817-1.229c0.081-0.1,0.157-0.201,0.23-0.304
			c0.067-0.098,0.141-0.197,0.256-0.344c0.053-0.111,0.035-0.225-0.05-0.322c-0.074-0.081-0.188-0.135-0.336-0.153
			c-0.142-0.02-0.275-0.017-0.389,0.015c-0.136,0.037-0.226,0.107-0.262,0.187c-0.025,0.033-0.039,0.065-0.061,0.098l-1.067,0.999
			c-0.218,0.188-0.436,0.375-0.651,0.556c-0.217,0.181-0.443,0.363-0.677,0.543c-0.233,0.188-0.461,0.37-0.697,0.539
			c-0.23,0.175-0.476,0.344-0.738,0.516l-0.764,0.504l-0.83,0.461c-0.154,0.072-0.305,0.141-0.448,0.206
			c-0.147,0.064-0.301,0.122-0.476,0.182c-0.074,0.031-0.152,0.057-0.237,0.078c-0.093,0.024-0.174,0.043-0.249,0.059L56.965,65.7
			c-0.085,0.014-0.163,0.021-0.233,0.021l-0.253-0.005c-0.06,0-0.114-0.012-0.174-0.034c-0.112-0.035-0.19-0.084-0.249-0.161
			c-0.07-0.077-0.111-0.145-0.13-0.245c-0.037-0.085-0.057-0.174-0.057-0.273c-0.01-0.183,0.006-0.385,0.05-0.597l0.448-1.202
			l-0.009,0.016c0.017,0.051,0.042,0.101,0.064,0.115l0.08,0.117l0.269,0.207c0.036,0.023,0.078,0.039,0.219,0.081l0.228,0.041
			l0.425-0.021c0.059-0.01,0.121-0.02,0.179-0.035c0.135-0.025,0.24-0.056,0.32-0.09c0.174-0.066,0.351-0.154,0.526-0.251
			c0.083-0.044,0.159-0.09,0.227-0.137l0.186-0.145c0.245-0.187,0.456-0.403,0.632-0.647l-0.094-0.072l0.212-0.085l0.128-0.169
			c0.032-0.054,0.06-0.103,0.095-0.154l0.088-0.157c0.082-0.123,0.149-0.24,0.2-0.35c0.05-0.106,0.098-0.216,0.14-0.322
			c0.04-0.07,0.062-0.142,0.072-0.208c0.01-0.052,0.019-0.109,0.036-0.168c0.016-0.065,0.03-0.128,0.04-0.193
			c0.008-0.063,0.012-0.131,0.013-0.203c0.006-0.098-0.008-0.174-0.055-0.318c-0.01-0.052-0.035-0.102-0.078-0.159l-0.076-0.11
			c-0.034-0.052-0.095-0.099-0.18-0.147c-0.07-0.049-0.148-0.09-0.217-0.111c-0.042-0.025-0.098-0.042-0.166-0.052l-0.306-0.059
			l-0.387,0.009c-0.195,0.026-0.339,0.052-0.427,0.088c-0.07,0.016-0.131,0.035-0.19,0.057c-0.059,0.024-0.114,0.049-0.161,0.071
			l-0.715,0.419c-0.145,0.1-0.269,0.206-0.355,0.3c-0.065,0.05-0.126,0.1-0.183,0.151c-0.057,0.054-0.11,0.104-0.161,0.157
			l-0.098,0.112c-0.001,0-0.007,0-0.007,0l-0.663,0.578c-0.227,0.194-0.457,0.385-0.693,0.576c-0.217,0.192-0.441,0.373-0.684,0.554
			l-0.729,0.549c-0.066,0.046-0.129,0.094-0.186,0.145c-0.051,0.046-0.107,0.084-0.185,0.126l-0.366,0.267
			c-0.083,0.046-0.153,0.09-0.212,0.132c-0.051,0.037-0.111,0.078-0.186,0.115l-0.149,0.089l0.182-0.303
			c0.06-0.105,0.13-0.214,0.211-0.33l0.224-0.345l0.059-0.153c0.035-0.056,0.071-0.117,0.112-0.212l0.059-0.282
			c0.009-0.037,0.02-0.083,0.02-0.136l-0.116-0.316c-0.035-0.048-0.089-0.105-0.165-0.168c-0.069-0.048-0.17-0.096-0.322-0.149
			l-0.288-0.044l-0.196,0.01c-0.07-0.002-0.126,0.003-0.135,0.008c-0.041,0-0.089,0.005-0.232,0.038
			c-0.11,0.018-0.18,0.037-0.207,0.053l-0.448,0.17c-0.05,0.018-0.098,0.043-0.139,0.064c-0.179,0.075-0.339,0.16-0.482,0.254
			L49.79,62.91c-0.236,0.175-0.477,0.365-0.72,0.567l-0.37,0.267l1.146-1.943c0.067-0.117,0.125-0.236,0.17-0.345
			c0.033-0.06,0.064-0.124,0.087-0.187c0.027-0.062,0.048-0.126,0.061-0.176l0.089-0.281c0.012-0.043,0.012-0.09,0.007-0.075
			l0.037-0.39l-0.044-0.09c0-0.065-0.041-0.118-0.047-0.074l-0.064-0.138l-0.2-0.147L49.555,59.8l-0.359,0.02
			c-0.069,0.008-0.152,0.03-0.238,0.061c-0.095,0.019-0.161,0.041-0.22,0.072l0.059,0.108l-0.189-0.039
			c-0.07,0.03-0.157,0.079-0.246,0.143l-0.45,0.289c-0.299,0.2-0.558,0.39-0.776,0.571c-0.268,0.2-0.507,0.402-0.707,0.601
			c-0.236,0.206-0.461,0.407-0.678,0.607c-0.116,0.102-0.226,0.206-0.338,0.306l1.307-1.611c0.054-0.107,0.04-0.221-0.033-0.316
			c-0.066-0.081-0.17-0.139-0.325-0.172c-0.351-0.075-0.588-0.008-0.727,0.191l-0.145,0.21l-0.572,0.648
			c-0.125,0.137-0.254,0.273-0.392,0.403l-1.304,1.17c-0.078,0.067-0.151,0.129-0.228,0.183c-0.078,0.06-0.16,0.122-0.226,0.18
			l-0.525,0.337l-0.304,0.15c-0.089,0.044-0.181,0.083-0.274,0.113l-0.249-0.019l-0.106-0.358c-0.013-0.067-0.019-0.137-0.018-0.205
			l0.001-0.221c0.021-0.29,0.069-0.585,0.172-0.984l0.028-0.13c0.012-0.07,0.036-0.142,0.069-0.219l0.085-0.312
			c0.047-0.078,0.063-0.122,0.06-0.17c0.02-0.063,0.028-0.181-0.11-0.286c-0.075-0.058-0.17-0.099-0.284-0.124
			c-0.138-0.018-0.276-0.015-0.405,0.018c-0.153,0.037-0.256,0.108-0.304,0.207l0.112,0.056l-0.199,0.07l-0.522,0.721
			c-0.071,0.09-0.142,0.184-0.224,0.274c-0.31,0.388-0.635,0.758-0.975,1.109l-0.552,0.539l-0.62,0.499l-0.344,0.231
			c-0.122,0.072-0.25,0.14-0.401,0.211c-0.112,0.075-0.239,0.127-0.391,0.158c-0.085,0.029-0.149,0.048-0.19,0.056
			c-0.083,0.014-0.145,0.02-0.277,0.019l-0.141,0.032l0.073-0.163l-0.04-0.102l0.028-0.301c0-0.045,0.003-0.087,0.008-0.131
			c0.01-0.043,0.022-0.089,0.038-0.142c0.045-0.199,0.118-0.398,0.212-0.604l0.047-0.152c0.016-0.041,0.038-0.082,0.069-0.132
			l0.141-0.301c0.092-0.198,0.196-0.398,0.304-0.591c0.112-0.201,0.228-0.398,0.353-0.594l0.833-1.208
			c0.053-0.114,0.029-0.233-0.071-0.331c-0.079-0.077-0.195-0.129-0.344-0.149l-0.136-0.012c-0.092-0.001-0.177,0.012-0.262,0.035
			c-0.14,0.041-0.237,0.113-0.286,0.212l-0.054,0.117l-1.063,0.995c-0.217,0.191-0.434,0.376-0.652,0.556
			c-0.217,0.181-0.44,0.362-0.674,0.545c-0.232,0.189-0.464,0.37-0.697,0.54c-0.233,0.173-0.477,0.342-0.739,0.514l-0.763,0.503
			l-0.83,0.463c-0.154,0.071-0.305,0.14-0.452,0.204c-0.142,0.064-0.297,0.123-0.472,0.182c-0.074,0.028-0.153,0.055-0.239,0.08
			c-0.092,0.022-0.176,0.039-0.247,0.056l-0.253,0.046c-0.085,0.014-0.162,0.022-0.232,0.022l-0.252-0.004
			c-0.063-0.001-0.117-0.01-0.176-0.033c-0.11-0.037-0.193-0.087-0.246-0.162c-0.073-0.076-0.114-0.147-0.133-0.245
			c-0.039-0.081-0.057-0.171-0.057-0.274c-0.013-0.18,0.007-0.383,0.051-0.597l0.447-1.202l-0.008,0.019
			c0.015,0.05,0.041,0.097,0.065,0.113l0.078,0.116l0.269,0.206c0.039,0.024,0.076,0.041,0.22,0.082l0.228,0.043l0.424-0.021
			c0.057-0.009,0.12-0.021,0.181-0.035c0.134-0.026,0.238-0.058,0.32-0.091c0.176-0.067,0.353-0.153,0.524-0.252
			c0.083-0.043,0.158-0.089,0.224-0.138l0.191-0.144c0.241-0.187,0.455-0.404,0.632-0.643l-0.097-0.075l0.216-0.089l0.127-0.164
			c0.029-0.054,0.059-0.107,0.092-0.155l0.089-0.159c0.081-0.126,0.151-0.241,0.202-0.35c0.048-0.104,0.096-0.216,0.138-0.324
			c0.038-0.069,0.061-0.141,0.075-0.206c0.008-0.054,0.019-0.111,0.033-0.172c0.016-0.062,0.032-0.125,0.04-0.189
			c0.01-0.062,0.014-0.13,0.014-0.203c0.002-0.099-0.006-0.175-0.054-0.319c-0.013-0.048-0.038-0.103-0.079-0.158l-0.075-0.112
			c-0.035-0.05-0.096-0.1-0.181-0.145c-0.07-0.05-0.149-0.089-0.218-0.113c-0.041-0.022-0.097-0.04-0.164-0.052l-0.307-0.056
			l-0.386,0.01c-0.194,0.022-0.339,0.052-0.433,0.085c-0.063,0.015-0.126,0.036-0.186,0.059c-0.059,0.02-0.115,0.043-0.16,0.069
			l-0.713,0.415c-0.149,0.102-0.273,0.209-0.355,0.301c-0.066,0.053-0.127,0.103-0.186,0.155c-0.057,0.052-0.11,0.103-0.158,0.157
			l-0.101,0.112c-0.019,0.014-0.045,0.014-0.06,0.031c-0.189,0.189-0.374,0.376-0.559,0.551c-0.186,0.178-0.382,0.355-0.585,0.539
			c-0.202,0.198-0.394,0.373-0.579,0.527l-0.947,0.794c-0.099,0.081-0.209,0.166-0.332,0.254l-0.319,0.229l-0.537,0.305
			l-0.048-0.406c0.009-0.057,0.014-0.111,0.014-0.161c0.018-0.212,0.04-0.425,0.066-0.626c0.025-0.206,0.054-0.416,0.087-0.631
			c0.018-0.109,0.031-0.221,0.041-0.329c0.01-0.115,0.006-0.234-0.007-0.341c0-0.058-0.003-0.115-0.008-0.179
			c-0.009-0.056-0.021-0.118-0.044-0.215l-0.095-0.2c-0.04-0.07-0.094-0.123-0.14-0.148c-0.045-0.035-0.095-0.063-0.147-0.083
			c-0.063-0.028-0.129-0.052-0.241-0.072l-0.11-0.016l-0.635,0.136c-0.054,0.017-0.098,0.035-0.129,0.054l-0.466,0.218
			c-0.157,0.076-0.303,0.15-0.438,0.227l-0.41,0.234c-0.264,0.156-0.526,0.31-0.781,0.468c-0.254,0.156-0.514,0.312-0.781,0.471
			l-1.851,1.212c-0.086,0.056-0.173,0.116-0.26,0.177l2.764-3.686l0.098-0.012l0.035-0.069c0.06-0.119,0.04-0.213,0.014-0.269
			c-0.054-0.112-0.184-0.189-0.402-0.239c-0.557-0.278-1.396-0.253-2.248,0.009c-1.58,0.487-2.121,1.865-2.121,1.865
			c0.271,0.272,0.721-0.339,0.873-0.459c0.544-0.419,1.248-0.757,2.057-0.866c0.188-0.025,0.358-0.014,0.509,0.016
			c-0.177,0.279-0.355,0.558-0.536,0.835l-0.79,1.193c-0.126,0.197-0.259,0.39-0.395,0.582l-1.29,1.755
			c-0.082,0.096-0.158,0.193-0.228,0.295c-0.069,0.097-0.141,0.189-0.213,0.276l-0.46,0.395l-0.082,0.019l-0.026,0.301l0.095,0.066
			c0.076,0.05,0.154,0.08,0.234,0.08l0.368-0.025l1.081-0.87c0.119-0.077,0.242-0.166,0.357-0.252
			c0.497-0.318,1.001-0.634,1.502-0.944c0.504-0.313,1.02-0.625,1.547-0.935c0.513-0.304,1.04-0.607,1.584-0.907l1.22-0.622
			l0.048,0.81c-0.003,0.105-0.01,0.209-0.017,0.309c-0.011,0.107-0.014,0.216-0.016,0.332l-0.009,0.629
			c0,0.064,0.002,0.125,0.012,0.185c0.005,0.048,0.008,0.096,0.013,0.172c0.01,0.049,0.017,0.094,0.015,0.138
			c0,0.075,0.019,0.153,0.112,0.309l0.077,0.135c0.038,0.043,0.097,0.087,0.167,0.128c0.038,0.021,0.089,0.043,0.174,0.064
			c0.08,0.019,0.228,0.043,0.347-0.003l0.423-0.138c0.055-0.023,0.099-0.052,0.125-0.072c0.143-0.077,0.278-0.16,0.412-0.254
			l0.348-0.258c0.125-0.092,0.238-0.182,0.341-0.267l0.316-0.259c0.179-0.146,0.346-0.292,0.513-0.436
			c-0.012,0.028-0.031,0.056-0.041,0.085c-0.091,0.225-0.168,0.453-0.232,0.683c-0.033,0.119-0.063,0.235-0.087,0.345
			c-0.026,0.107-0.052,0.218-0.087,0.353c-0.02,0.234-0.024,0.469-0.007,0.733c0.012,0.054,0.022,0.106,0.027,0.157
			c0.01,0.068,0.032,0.138,0.072,0.221l0.099,0.197l0.264,0.285c0.04,0.033,0.089,0.063,0.119,0.078
			c0.044,0.035,0.096,0.067,0.161,0.092c0.057,0.024,0.118,0.046,0.177,0.06c0.133,0.047,0.267,0.078,0.407,0.087l0.374,0.005
			l0.005-0.001c0.127-0.006,0.248-0.022,0.36-0.041l0.622-0.136c0.108-0.028,0.209-0.063,0.279-0.103
			c0.189-0.066,0.361-0.132,0.519-0.203c0.157-0.072,0.316-0.148,0.466-0.226c0.158-0.075,0.312-0.155,0.461-0.237l1.231-0.769
			c0.266-0.176,0.519-0.35,0.753-0.53c0.236-0.177,0.471-0.36,0.701-0.551c0.236-0.184,0.464-0.366,0.691-0.55
			c0.155-0.126,0.303-0.257,0.453-0.385c-0.035,0.075-0.076,0.154-0.11,0.229c-0.087,0.199-0.177,0.402-0.274,0.616
			c-0.082,0.211-0.158,0.419-0.231,0.623c-0.073,0.211-0.136,0.426-0.185,0.643c-0.016,0.062-0.028,0.121-0.038,0.172
			c-0.009,0.058-0.014,0.12-0.009,0.149c-0.041,0.121-0.041,0.253-0.01,0.363c0,0.045,0.005,0.086,0.016,0.128l0.108,0.294
			l0.111,0.072c0.04,0.09,0.141,0.13,0.204,0.154c0.102,0.035,0.177,0.06,0.249,0.072l0.232,0.004
			c0.113,0.002,0.237-0.012,0.368-0.036l0.157-0.03c0.059-0.012,0.113-0.029,0.162-0.044c0.188-0.065,0.363-0.132,0.525-0.2
			c0.158-0.077,0.304-0.158,0.434-0.245l0.373-0.247c0.472-0.332,0.918-0.694,1.32-1.071c0.202-0.184,0.402-0.367,0.591-0.55
			c0.143-0.142,0.282-0.285,0.42-0.429L40.48,62.86c0,0.128,0.006,0.253,0.022,0.384l0.041,0.202c0,0.05,0.003,0.1,0.013,0.145
			l0.014,0.128c0.028,0.11,0.062,0.198,0.088,0.256c0.035,0.111,0.089,0.206,0.136,0.246c0.024,0.068,0.082,0.13,0.209,0.212
			l0.12,0.047c0.064,0.037,0.143,0.055,0.241,0.055v-0.012c0.033,0.01,0.072,0.012,0.121,0.012c0.08,0,0.165,0,0.19-0.012
			c0.104-0.005,0.203-0.028,0.292-0.065l0.698-0.332c0.091-0.064,0.183-0.125,0.274-0.18c0.096-0.062,0.186-0.126,0.262-0.191
			c0.096-0.066,0.183-0.134,0.265-0.194l0.228-0.193c0.057-0.041,0.099-0.083,0.153-0.126l-1.38,2.021l-0.168,0.203l0.112,0.003
			c0.028,0.088,0.126,0.125,0.195,0.144l0.136,0.025c0.095,0,0.181-0.034,0.243-0.101c0.2-0.205,0.411-0.405,0.626-0.603
			c0.219-0.196,0.444-0.392,0.679-0.595c0.218-0.196,0.442-0.392,0.674-0.589c0.231-0.197,0.47-0.392,0.721-0.581
			c0.234-0.188,0.473-0.378,0.724-0.565l2.292-1.648l0.466-0.269c-0.003,0.041-0.01,0.075-0.022,0.121
			c-0.004,0.066-0.013,0.103-0.027,0.14l-0.266,1.021c-0.029,0.111-0.066,0.225-0.101,0.335c-0.042,0.111-0.083,0.225-0.127,0.331
			l-0.988,1.996l-0.076,0.075l0.139,0.192c0.037,0.021,0.078,0.031,0.12,0.031l1.683-1.134c0.263-0.172,0.532-0.337,0.809-0.5
			c0.279-0.165,0.571-0.322,0.877-0.475l0.446-0.222c0.072-0.041,0.147-0.073,0.232-0.109l0.641-0.258l0.083-0.068l-0.013,0.252
			l-0.446,1.392c-0.001,0-0.003,0.033-0.038,0.125c-0.023,0.047-0.036,0.12-0.036,0.339l0.042,0.109l0.286,0.181l0.26-0.014
			l0.075-0.141l0.066,0.107l1.766-1.155c0.406-0.304,0.796-0.608,1.183-0.917c-0.088,0.168-0.179,0.335-0.245,0.506
			c-0.093,0.223-0.168,0.452-0.234,0.682c-0.032,0.119-0.063,0.233-0.087,0.344c-0.022,0.106-0.052,0.219-0.087,0.356
			c-0.019,0.231-0.022,0.468-0.006,0.733c0.012,0.053,0.024,0.103,0.029,0.157c0.01,0.068,0.031,0.137,0.067,0.22l0.1,0.198
			l0.262,0.282c0.047,0.032,0.091,0.066,0.123,0.079c0.044,0.034,0.097,0.065,0.159,0.092c0.057,0.022,0.12,0.042,0.177,0.06
			c0.133,0.045,0.265,0.074,0.406,0.087l0.376,0.005h0.005c0.13-0.007,0.247-0.019,0.361-0.04l0.623-0.14
			c0.107-0.024,0.205-0.062,0.277-0.098c0.188-0.065,0.359-0.134,0.52-0.204c0.154-0.071,0.316-0.147,0.466-0.229
			c0.16-0.073,0.312-0.151,0.461-0.235l1.231-0.77c0.266-0.172,0.518-0.351,0.752-0.527c0.237-0.178,0.468-0.362,0.7-0.554
			c0.237-0.178,0.468-0.364,0.693-0.55c0.106-0.085,0.202-0.17,0.304-0.258l-0.11,0.213c-0.113,0.213-0.208,0.435-0.288,0.65
			l-0.143,0.326c-0.051,0.114-0.092,0.232-0.127,0.362l-0.078,0.363l-0.003,0.176c-0.002,0.091,0.008,0.163,0.02,0.175l0.063,0.166
			c0.044,0.073,0.098,0.124,0.115,0.113l0.116,0.094l0.219,0.057l0.274-0.009c0.108-0.019,0.174-0.038,0.177-0.048
			c0.075-0.009,0.145-0.028,0.202-0.057l1.085-0.622c0.267-0.176,0.518-0.351,0.752-0.529l0.703-0.539
			c0.234-0.183,0.464-0.366,0.688-0.548c0.231-0.179,0.451-0.362,0.67-0.543l0.877-0.738c0.063-0.053,0.12-0.103,0.183-0.159
			l-6.749,10.214l-0.278,0.397c-0.501,0.672-0.977,1.354-1.406,2.024c-0.433,0.676-0.856,1.358-1.26,2.04
			c-0.08,0.115-0.076,0.24,0.015,0.348c0.073,0.085,0.186,0.142,0.329,0.162c0.068,0.014,0.131,0.022,0.195,0.022
			c0.074,0.002,0.146-0.007,0.22-0.024c0.148-0.035,0.25-0.098,0.318-0.197l2.71-4.332c0.452-0.621,0.922-1.237,1.408-1.845
			c0.481-0.607,1.007-1.211,1.561-1.798l0.937-0.938c0.31-0.307,0.638-0.613,0.977-0.916c0.341-0.307,0.691-0.607,1.052-0.904
			c0.354-0.295,0.72-0.592,1.091-0.888l1.138-0.859c0.207-0.144,0.402-0.289,0.588-0.44c0.188-0.146,0.38-0.295,0.581-0.441
			c0.124-0.091,0.239-0.188,0.358-0.28c-0.044,0.096-0.101,0.189-0.14,0.286c-0.089,0.225-0.164,0.451-0.229,0.683
			c-0.037,0.119-0.066,0.233-0.091,0.343c-0.024,0.109-0.052,0.219-0.088,0.355c-0.016,0.233-0.02,0.469-0.005,0.735
			c0.014,0.052,0.023,0.103,0.031,0.155c0.008,0.069,0.028,0.139,0.066,0.223l0.102,0.196l0.259,0.282
			c0.044,0.033,0.091,0.066,0.123,0.079c0.042,0.035,0.097,0.066,0.159,0.092c0.06,0.025,0.12,0.045,0.176,0.063
			c0.134,0.045,0.269,0.073,0.409,0.085c0,0,0.164,0.033,0.373,0.005c0.444-0.057,2.078-0.866,2.751-1.32
			c0.465-0.312,1.456-0.915,2.157-1.513c0.136-0.119,0.797-1.02,1.228-1.544 M73.841,62.401l0.176-0.388l0.367-0.425
			c0.092-0.1,0.184-0.192,0.278-0.282c0.091-0.09,0.19-0.178,0.3-0.272l0.149-0.125c0.048-0.043,0.106-0.085,0.162-0.123
			l0.179-0.118c0.048-0.035,0.103-0.07,0.154-0.094l0.509-0.185l0.104,0.497l-0.072,0.303c-0.02,0.057-0.033,0.116-0.041,0.178
			l0.119,0.018l-0.177,0.123l-0.048,0.16c-0.012,0.041-0.037,0.09-0.063,0.147l-0.215,0.476l0.108,0.049l-0.193,0.086
			c-0.065,0.096-0.129,0.191-0.198,0.285c-0.064,0.087-0.147,0.171-0.253,0.261l-0.146,0.125c-0.054,0.043-0.108,0.085-0.161,0.119
			c-0.12,0.071-0.25,0.14-0.376,0.198l-0.397,0.102c-0.119,0-0.151-0.012-0.22-0.025l-0.149-0.173l-0.057-0.313
			C73.715,62.783,73.769,62.578,73.841,62.401z M57.125,62.172l0.174-0.384l0.369-0.428c0.091-0.098,0.185-0.193,0.277-0.282
			c0.091-0.088,0.19-0.177,0.3-0.267l0.151-0.127c0.048-0.043,0.104-0.085,0.161-0.124l0.177-0.117
			c0.05-0.037,0.106-0.068,0.156-0.096l0.507-0.184l0.105,0.496l-0.07,0.305c-0.021,0.054-0.035,0.113-0.046,0.174l0.121,0.02
			l-0.177,0.121l-0.046,0.159c-0.016,0.045-0.033,0.094-0.066,0.151l-0.213,0.476l0.107,0.05l-0.195,0.084
			c-0.061,0.097-0.126,0.191-0.196,0.284c-0.063,0.087-0.149,0.175-0.253,0.263l-0.147,0.128c-0.054,0.04-0.107,0.081-0.161,0.117
			c-0.12,0.071-0.247,0.14-0.372,0.197l-0.4,0.1c-0.12-0.001-0.149-0.009-0.22-0.021l-0.149-0.174l-0.057-0.315
			C56.996,62.554,57.05,62.35,57.125,62.172z M41.592,61.305l-0.005,0.003v-0.003H41.592z M29.873,61.801l0.176-0.386l0.367-0.427
			c0.092-0.097,0.184-0.19,0.277-0.282c0.093-0.089,0.192-0.177,0.3-0.268l0.151-0.126c0.05-0.044,0.104-0.083,0.161-0.122
			l0.178-0.118c0.048-0.035,0.104-0.069,0.157-0.097l0.507-0.186l0.104,0.498l-0.072,0.306c-0.015,0.056-0.032,0.113-0.042,0.176
			l0.123,0.016l-0.178,0.125l-0.049,0.159c-0.011,0.043-0.032,0.088-0.063,0.149l-0.214,0.476l0.108,0.048l-0.198,0.081
			c-0.06,0.099-0.125,0.194-0.192,0.288c-0.065,0.087-0.147,0.172-0.253,0.26l-0.149,0.128c-0.051,0.042-0.107,0.083-0.158,0.118
			c-0.121,0.072-0.25,0.138-0.373,0.2l-0.4,0.1c-0.117-0.001-0.148-0.01-0.219-0.022l-0.149-0.176l-0.06-0.31
			C29.745,62.183,29.8,61.981,29.873,61.801z"/>
		<g>
			<path fill="#FFFFFF" d="M78.322,63.108c0.973-0.81,1.67-1.517,1.963-2.09c-0.818-0.286-1.23-0.698-1.23-1.232
				c0-0.256,0.097-0.463,0.289-0.624c0.19-0.156,0.433-0.236,0.728-0.236c0.303,0,0.552,0.087,0.742,0.262
				c0.193,0.175,0.288,0.403,0.288,0.683c0,0.196-0.055,0.417-0.166,0.66c0.273,0.043,0.52,0.067,0.744,0.067
				c0.628,0,1.142-0.114,1.548-0.346h0.727l-0.106,0.137c-0.729,0.839-1.327,1.665-1.797,2.478
				c-0.471,0.813-0.706,1.419-0.706,1.821c0,0.146,0.062,0.268,0.182,0.368c0.121,0.098,0.267,0.149,0.439,0.149
				c0.416,0,1.083-0.278,2.003-0.832l0.243,0.172c-0.282,0.197-0.725,0.444-1.318,0.736c-0.538,0.267-1.038,0.401-1.504,0.401
				c-0.393,0-0.479-0.131-0.706-0.297c-0.228-0.165-0.343-0.393-0.343-0.679c0-0.478,0.069-1.035,0.656-1.767
				c0.212-0.275,0.487-0.588,0.819-0.938c0.333-0.349,0.753-0.767,1.26-1.251l0.152-0.134c-0.333,0.191-0.657,0.326-0.963,0.408
				c-0.31,0.079-0.661,0.118-1.056,0.118c-0.181,0-0.374-0.015-0.577-0.049c-0.325,0.627-1.496,2.004-2.385,2.667L78.322,63.108z
				 M80.618,60.444c0.042-0.159,0.059-0.292,0.059-0.401c0-0.223-0.057-0.398-0.174-0.525c-0.116-0.126-0.265-0.189-0.447-0.189
				c-0.101,0-0.188,0.028-0.269,0.09c-0.075,0.06-0.112,0.135-0.112,0.225C79.677,59.942,79.991,60.21,80.618,60.444z"/>
		</g>
	</g>
</g>
</svg>
